<?xml version="1.0" encoding="UTF-8"?>
<svg width="144px" height="24px" viewBox="0 0 144 24" version="1.1" xmlns="http://www.w3.org/2000/svg" xmlns:xlink="http://www.w3.org/1999/xlink">
    <!-- Generator: Sketch 63.1 (92452) - https://sketch.com -->
    <title>asset/icon/img_duro_logo_1</title>
    <desc>Created with Sketch.</desc>
    <defs>
        <polygon id="path-1" points="0.381634884 0.410352632 18.6618442 0.410352632 18.6618442 18 0.381634884 18"></polygon>
        <polygon id="path-3" points="0.190519149 0.314446154 20.7846383 0.314446154 20.7846383 17.7439846 0.190519149 17.7439846"></polygon>
        <polygon id="path-5" points="9.17647059e-05 0.343230769 38.6977271 0.343230769 38.6977271 22.8652288 9.17647059e-05 22.8652288"></polygon>
    </defs>
    <g id="asset/icon/img_duro_logo_1" stroke="none" stroke-width="1" fill="none" fill-rule="evenodd">
        <g id="-g-Group-16" transform="translate(6.000000, 0.000000)">
            <path d="M17.0973243,3.41205002 C11.6010926,1.56211724 6,2.06134079 6,2.06134079 L6,3.19695191 C6,3.19695191 6.77032388,3.03039561 8.07032945,3.10387633 C9.37033502,3.17735705 10.8477974,3.39735387 12.5318446,4.45414022 C14.2163399,5.51181724 14.4085848,7.905062 13.6548415,9.97454627 C12.9015463,12.0458119 10.2419348,17.9768193 7.70107588,22 L22.8592932,22 C22.8592932,22 23.2729109,16.2738479 22.6818364,11.340397 C22.0912099,6.40739134 20.3471142,4.50579939 17.0973243,3.41205002" id="Fill-4" fill="#ED8B33"></path>
            <path d="M99.8416485,13.7417334 L97.3997913,13.7093569 L97.3997913,9.80071764 L99.250498,9.80071764 C100.600114,9.80071764 101.729062,9.96635385 101.875036,11.55374 C101.993266,12.8426994 101.282178,13.6230196 99.8416485,13.7417334 M105.008347,15.0194314 C107.508679,14.435247 108.575737,13.1378416 108.575737,10.5313 C108.575737,7.26831355 106.000711,6 101.824244,6 L91,6 L91,23 L97.3997913,23 L97.3997913,22.9845156 L97.3997913,17.1881866 L99.8416485,17.2491858 C100.636821,17.3078388 101.026084,17.5781121 101.207057,18.0815898 C101.638149,19.2734198 101.828939,21.8555617 102.025704,23 L109,23 C108.511287,20.9931272 108.137817,19.4188794 107.443802,17.2787469 C107.087831,16.1863925 106.45912,15.2634281 105.008347,15.0194314" id="Fill-6" fill="#ED8B33"></path>
            <path d="M57.6700875,18.7617335 L55.9368659,18.7617335 L55.9368659,9.9452857 L57.6457693,9.9452857 C60.1306432,9.9452857 60.7514195,11.4571237 60.7514195,14.3788728 C60.7514195,17.2039098 60.1819324,18.7617335 57.6700875,18.7617335 M59.1725077,6 L49,6 L49,23 L58.8877641,23 C64.0653216,23 68,20.9790011 68,14.5500153 C68,7.65785437 64.349623,6 59.1725077,6" id="Fill-8" fill="#ED8B33"></path>
            <g id="Group-12" transform="translate(69.000000, 6.000000)">
                <mask id="mask-2" fill="white">
                    <use xlink:href="#path-1"></use>
                </mask>
                <g id="Clip-11"></g>
                <path d="M11.7993093,10.6926158 C11.7993093,12.3770368 11.4064953,13.5418263 9.57454186,13.5418263 C7.89856512,13.5418263 7.39970465,12.3021947 7.39970465,10.6670368 L7.39970465,0.410352632 L0.381634884,0.410352632 L0.381634884,10.9161947 C0.381634884,16.0177737 4.38798372,18.0001421 9.49412326,18.0001421 C15.0217977,18.0001421 18.6618442,16.1684053 18.6618442,10.5689842 L18.6618442,0.410352632 L11.7993093,0.410352632 L11.7993093,10.6926158 Z" id="Fill-10" fill="#ED8B33" mask="url(#mask-2)"></path>
            </g>
            <g id="Group-15" transform="translate(111.000000, 6.000000)">
                <mask id="mask-4" fill="white">
                    <use xlink:href="#path-3"></use>
                </mask>
                <g id="Clip-14"></g>
                <path d="M10.4479021,13.6875231 C7.90422128,13.6875231 7.6115617,10.8393692 7.6115617,9.02921538 C7.6115617,7.46136923 7.82468936,4.37044615 10.4479021,4.37044615 C13.152434,4.37044615 13.3383064,7.46136923 13.3642213,9.02921538 C13.3383064,10.8393692 13.2578809,13.6875231 10.4479021,13.6875231 M10.4479021,0.314446154 C3.98034894,0.314446154 0.190519149,3.37952308 0.190519149,9.02921538 C0.190519149,14.7744462 3.98034894,17.7439846 10.4479021,17.7439846 C16.9163489,17.7439846 20.784817,14.7744462 20.784817,9.02921538 C20.784817,3.37952308 16.9163489,0.314446154 10.4479021,0.314446154" id="Fill-13" fill="#ED8B33" mask="url(#mask-4)"></path>
            </g>
            <g id="Group-3">
                <mask id="mask-6" fill="white">
                    <use xlink:href="#path-5"></use>
                </mask>
                <g id="Clip-2"></g>
                <path d="M6.77508,21.5577673 L6.77508,1.501325 C6.77508,1.501325 11.1651035,0.974536538 16.7755976,2.007325 C22.5847624,3.07638269 25.3276094,7.02353654 26.0539271,10.6787673 C26.7802447,14.3344404 26.8807271,21.5577673 26.8807271,21.5577673 L6.77508,21.5577673 Z M34.3535859,8.54994038 C30.9752682,3.60140192 24.5008094,2.04669038 23.4317506,1.75476731 C22.3631506,1.46284423 19.5042212,0.804248077 16.9976682,0.627325 C12.2378329,0.257555769 6.58008,0.354421154 6.58008,0.354421154 L9.17647059e-05,0.354421154 L9.17647059e-05,22.8652288 L38.6977271,22.8590365 C38.6977271,22.8590365 38.6679035,14.8691904 34.3535859,8.54994038 L34.3535859,8.54994038 Z" id="Fill-1" fill="#009F40" mask="url(#mask-6)"></path>
            </g>
        </g>
    </g>
</svg>