<?xml version="1.0" encoding="UTF-8"?>
<svg width="32px" height="32px" viewBox="0 0 32 32" version="1.1" xmlns="http://www.w3.org/2000/svg" xmlns:xlink="http://www.w3.org/1999/xlink">
    <!-- Generator: Sketch 63.1 (92452) - https://sketch.com -->
    <title>asset/icon/img_facebook</title>
    <desc>Created with Sketch.</desc>
    <g id="asset/icon/img_facebook" stroke="none" stroke-width="1" fill="none" fill-rule="evenodd">
        <path d="M16,0 C7.164,0 0,7.17044815 0,16.0170011 C0,24.63954 6.812,31.6509782 15.34,32 C15.139,31.9309957 14.993,31.7449841 14.993,31.51997 L14.993,21.0733171 L11.713,21.0733171 C11.43,21.0733171 11.2,20.8443028 11.2,20.560285 L11.2,16.4200263 C11.2,16.1370086 11.43,15.9059941 11.713,15.9059941 L14.993,15.9059941 L14.993,13.0488156 C14.993,9.28458029 17.361,6.85242828 21.026,6.85242828 L24.288,6.85642853 C24.571,6.85742859 24.8,7.08744297 24.8,7.37046065 L24.8,11.2147009 C24.8,11.4987187 24.57,11.728733 24.288,11.728733 L22.09,11.7297331 C20.575,11.7297331 20.298,12.31977 20.298,13.4838427 L20.298,15.9059941 L24.134,15.9059941 C24.27,15.9059941 24.401,15.9609976 24.497,16.0570036 C24.593,16.1530096 24.647,16.2840178 24.647,16.4200263 L24.646,20.560285 C24.646,20.8443028 24.416,21.0733171 24.133,21.0733171 L20.298,21.0733171 L20.298,31.4319645 C27.044,29.5498469 32,23.3694606 32,16.0170011 C32,7.17044815 24.836,0 16,0" id="-g-img_facebook" fill="#FEFEFE"></path>
    </g>
</svg>