<?xml version="1.0" encoding="UTF-8"?>
<svg width="32px" height="32px" viewBox="0 0 32 32" version="1.1" xmlns="http://www.w3.org/2000/svg" xmlns:xlink="http://www.w3.org/1999/xlink">
    <!-- Generator: Sketch 63.1 (92452) - https://sketch.com -->
    <title>asset/icon/img_youtube</title>
    <desc>Created with Sketch.</desc>
    <g id="asset/icon/img_youtube" stroke="none" stroke-width="1" fill="none" fill-rule="evenodd">
        <path d="M26.4,19.680615 C26.4,21.6236757 24.824,23.200725 22.88,23.200725 L9.12,23.200725 C7.176,23.200725 5.6,21.6236757 5.6,19.680615 L5.6,12.320385 C5.6,10.3753242 7.176,8.80027501 9.12,8.80027501 L22.88,8.80027501 C24.824,8.80027501 26.4,10.3753242 26.4,12.320385 L26.4,19.680615 Z M16,0 C7.163,0 0,7.16322385 0,15.9995 C0,24.8367761 7.163,32 16,32 C24.837,32 32,24.8367761 32,15.9995 C32,7.16322385 24.837,0 16,0 L16,0 Z M13.76,12.8004 L13.76,19.2006 L20,15.9995 L16.88,14.40045 L13.76,12.8004 Z" id="-g-Fill-1" fill="#FEFEFE"></path>
    </g>
</svg>