<?xml version="1.0" encoding="UTF-8"?>
<svg width="32px" height="32px" viewBox="0 0 32 32" version="1.1" xmlns="http://www.w3.org/2000/svg" xmlns:xlink="http://www.w3.org/1999/xlink">
    <!-- Generator: Sketch 63.1 (92452) - https://sketch.com -->
    <title>asset/icon/img_instagram</title>
    <desc>Created with Sketch.</desc>
    <g id="asset/icon/img_instagram" stroke="none" stroke-width="1" fill="none" fill-rule="evenodd">
        <path d="M26,21.5426732 C26,24.00075 24,25.9998125 21.542,25.9998125 L10.458,25.9998125 C8,25.9998125 6,24.00075 6,21.5426732 L6,10.4573268 C6,7.99924998 8,5.99918747 10.458,5.99918747 L21.542,5.99918747 C24,5.99918747 26,7.99924998 26,10.4573268 L26,21.5426732 Z M16,0 C7.164,0 0,7.16322385 0,15.9995 C0,24.8367761 7.164,32 16,32 C24.836,32 32,24.8367761 32,15.9995 C32,7.16322385 24.836,0 16,0 L16,0 Z M15.999,12.8604019 L15.8,12.8604019 C14.163,12.9644051 12.861,14.3294478 12.861,15.9934998 C12.861,17.7245539 14.269,19.1335979 16,19.1335979 C17.728,19.1335979 19.136,17.727554 19.139,15.9995 C19.136,14.272446 17.728,12.863402 15.999,12.8604019 L15.999,12.8604019 Z M21.341,11.5683615 C20.761,11.5643614 20.292,11.0913466 20.296,10.5103284 C20.3,9.92931029 20.774,9.46129567 21.355,9.46529579 C21.935,9.47329604 22.4,9.94431076 22.4,10.5233289 C22.396,11.104347 21.922,11.5723616 21.341,11.5683615 L21.341,11.5683615 Z M16.001,21.2196631 L16,21.2196631 C13.122,21.2196631 10.781,18.8775899 10.781,15.9995 C10.781,13.1224101 13.122,10.7803369 16,10.7803369 C18.878,10.7803369 21.219,13.1224101 21.219,15.9995 C21.215,18.8745898 18.874,21.215663 16.001,21.2196631 L16.001,21.2196631 Z M21.542,8.07925248 L10.458,8.07925248 C9.147,8.07925248 8.08,9.14628582 8.08,10.4573268 L8.08,21.5426732 C8.08,22.8547142 9.147,23.9197475 10.458,23.9197475 L21.542,23.9197475 C22.853,23.9197475 23.92,22.8547142 23.92,21.5426732 L23.92,10.4573268 C23.92,9.14628582 22.853,8.07925248 21.542,8.07925248 L21.542,8.07925248 Z" id="-g-Fill-1" fill="#FEFEFE"></path>
    </g>
</svg>